<svg xmlns="http://www.w3.org/2000/svg" xmlns:xlink="http://www.w3.org/1999/xlink" width="500" zoomAndPan="magnify" viewBox="0 0 375 374.999991" height="500" preserveAspectRatio="xMidYMid meet" version="1.0"><defs><g/><clipPath id="235793aa98"><path d="M 268 146 L 300.765625 146 L 300.765625 180.246094 L 268 180.246094 Z M 268 146 " clip-rule="nonzero"/></clipPath><clipPath id="51dd2e7659"><path d="M 231.765625 146 L 265 146 L 265 180.246094 L 231.765625 180.246094 Z M 231.765625 146 " clip-rule="nonzero"/></clipPath><clipPath id="8b4dd969e7"><path d="M 251 118.746094 L 282 118.746094 L 282 167 L 251 167 Z M 251 118.746094 " clip-rule="nonzero"/></clipPath><clipPath id="c22317a1e8"><path d="M 96.476562 154.363281 L 222.476562 154.363281 L 222.476562 178.363281 L 96.476562 178.363281 Z M 96.476562 154.363281 " clip-rule="nonzero"/></clipPath><clipPath id="5743fb1723"><rect x="0" width="331" y="0" height="58"/></clipPath><clipPath id="1eff2fe3aa"><rect x="0" width="210" y="0" height="28"/></clipPath></defs><g clip-path="url(#235793aa98)"><path fill="#75b22c" d="M 298.148438 146.621094 C 296.265625 146.671875 294.371094 146.757812 292.5 146.972656 C 291.550781 147.082031 290.613281 147.246094 289.683594 147.457031 C 281.507812 149.328125 273.09375 153.726562 270.324219 162.144531 C 268.972656 166.253906 268.453125 170.621094 268.640625 174.933594 C 268.648438 175.089844 268.746094 176.539062 268.878906 177.90625 C 274.136719 167.101562 282.585938 158.042969 292.746094 152.152344 C 282.683594 159.097656 275.003906 169.125 270.917969 180.328125 C 273.328125 180.164062 277.9375 179.835938 280.976562 179.539062 C 285.246094 179.121094 289.28125 177.003906 292.253906 173.910156 C 295.222656 170.8125 297.148438 166.78125 297.964844 162.570312 C 298.496094 159.835938 298.660156 157.054688 299.023438 154.296875 C 299.203125 152.933594 299.429688 151.574219 299.78125 150.238281 C 300.082031 149.089844 301.050781 146.574219 301.050781 146.574219 C 300.992188 146.726562 298.363281 146.613281 298.148438 146.617188 Z M 298.148438 146.621094 " fill-opacity="1" fill-rule="nonzero"/></g><g clip-path="url(#51dd2e7659)"><path fill="#75b22c" d="M 234.664062 146.621094 C 236.546875 146.671875 238.441406 146.757812 240.316406 146.972656 C 241.261719 147.082031 242.199219 147.246094 243.128906 147.457031 C 251.304688 149.328125 259.71875 153.726562 262.488281 162.144531 C 263.839844 166.253906 264.359375 170.621094 264.171875 174.933594 C 264.164062 175.089844 264.066406 176.539062 263.933594 177.90625 C 258.675781 167.101562 250.226562 158.042969 240.066406 152.152344 C 250.132812 159.097656 257.808594 169.125 261.894531 180.328125 C 259.484375 180.164062 254.875 179.835938 251.835938 179.539062 C 247.566406 179.121094 243.53125 177.003906 240.5625 173.910156 C 237.589844 170.8125 235.664062 166.78125 234.847656 162.570312 C 234.316406 159.835938 234.152344 157.054688 233.789062 154.296875 C 233.609375 152.933594 233.382812 151.574219 233.03125 150.238281 C 232.730469 149.089844 231.765625 146.574219 231.765625 146.574219 C 231.820312 146.726562 234.449219 146.613281 234.664062 146.617188 Z M 234.664062 146.621094 " fill-opacity="1" fill-rule="nonzero"/></g><g clip-path="url(#8b4dd969e7)"><path fill="#ff914d" d="M 281.023438 148.910156 C 276.058594 151.3125 271.050781 155.25 268.941406 161.695312 C 268.429688 163.234375 268.03125 164.8125 267.738281 166.425781 L 266.40625 134.441406 L 265.074219 166.46875 C 264.796875 164.828125 264.386719 163.234375 263.875 161.679688 C 261.765625 155.265625 256.769531 151.3125 251.804688 148.910156 C 252.613281 145.144531 253.945312 141.734375 255.453125 139.054688 C 256.933594 136.417969 258.808594 134.074219 262.042969 127.953125 C 264.035156 124.160156 265.484375 120.953125 266.40625 118.769531 C 267.34375 120.953125 268.792969 124.160156 270.785156 127.953125 C 274.007812 134.074219 275.898438 136.417969 277.375 139.054688 C 278.882812 141.734375 280.21875 145.144531 281.023438 148.910156 Z M 281.023438 148.910156 " fill-opacity="1" fill-rule="nonzero"/></g><g clip-path="url(#c22317a1e8)"><path fill="#ff914d" d="M 96.554688 168.90625 C 96.777344 168.332031 96.992188 167.871094 97.285156 167.457031 C 99.5 164.34375 102.113281 161.632812 105.355469 159.574219 C 108.714844 157.441406 112.363281 156.019531 116.246094 155.203125 C 119.394531 154.542969 122.578125 154.359375 125.789062 154.519531 C 131.214844 154.789062 136.445312 155.988281 141.5625 157.753906 C 145.355469 159.0625 149.03125 160.664062 152.699219 162.28125 C 156.578125 163.996094 160.457031 165.707031 164.433594 167.1875 C 168.300781 168.628906 172.234375 169.832031 176.28125 170.640625 C 179.347656 171.253906 182.4375 171.640625 185.558594 171.808594 C 188.234375 171.953125 190.902344 171.910156 193.570312 171.675781 C 196.621094 171.40625 199.628906 170.871094 202.597656 170.125 C 206.464844 169.160156 210.253906 167.960938 213.898438 166.335938 C 215.824219 165.480469 217.652344 164.453125 219.371094 163.238281 C 220.457031 162.472656 221.433594 161.570312 222.441406 160.707031 C 222.523438 160.636719 222.582031 160.539062 222.71875 160.503906 C 222.578125 161.179688 222.34375 161.804688 221.976562 162.382812 C 219.554688 166.191406 216.351562 169.160156 212.398438 171.332031 C 209.316406 173.023438 206.058594 174.289062 202.703125 175.324219 C 199.085938 176.4375 195.398438 177.257812 191.652344 177.796875 C 189.527344 178.101562 187.390625 178.300781 185.242188 178.402344 C 183.480469 178.484375 181.722656 178.503906 179.960938 178.441406 C 177.628906 178.359375 175.304688 178.164062 172.992188 177.859375 C 164.890625 176.808594 157.074219 174.636719 149.390625 171.925781 C 145.273438 170.476562 141.210938 168.882812 137.109375 167.394531 C 133.210938 165.976562 129.277344 164.664062 125.238281 163.691406 C 122.289062 162.984375 119.316406 162.449219 116.285156 162.273438 C 110.914062 161.960938 105.859375 163.089844 101.132812 165.675781 C 100.621094 165.957031 100.125 166.273438 99.65625 166.628906 C 98.699219 167.355469 97.679688 168.003906 96.761719 168.789062 C 96.726562 168.816406 96.683594 168.832031 96.554688 168.90625 Z M 96.554688 168.90625 " fill-opacity="1" fill-rule="nonzero"/></g><g transform="matrix(1, 0, 0, 1, 24, 183)"><g clip-path="url(#5743fb1723)"><g fill="#256519" fill-opacity="1"><g transform="translate(0.951953, 43.185079)"><g><path d="M 3.875 -40.71875 L 12.359375 -40.71875 L 12.359375 -25.46875 L 31.046875 -25.46875 L 31.046875 -40.71875 L 39.515625 -40.71875 L 39.515625 0 L 31.046875 0 L 31.046875 -17.875 L 12.359375 -17.875 L 12.359375 0 L 3.875 0 Z M 3.875 -40.71875 "/></g></g></g><g fill="#256519" fill-opacity="1"><g transform="translate(45.058924, 43.185079)"><g><path d="M 33.453125 0 L 30.765625 -5.46875 L 11.046875 -5.46875 L 8.421875 0 L -0.328125 0 L 21.15625 -41.421875 L 42.6875 0 Z M 20.828125 -25.796875 L 14.703125 -13.125 L 27.0625 -13.125 Z M 20.828125 -25.796875 "/></g></g></g><g fill="#256519" fill-opacity="1"><g transform="translate(88.127447, 43.185079)"><g><path d="M 33.453125 0 L 30.765625 -5.46875 L 11.046875 -5.46875 L 8.421875 0 L -0.328125 0 L 21.15625 -41.421875 L 42.6875 0 Z M 20.828125 -25.796875 L 14.703125 -13.125 L 27.0625 -13.125 Z M 20.828125 -25.796875 "/></g></g></g><g fill="#256519" fill-opacity="1"><g transform="translate(131.19597, 43.185079)"><g><path d="M 19.5625 0 L 11.09375 0 L 11.09375 -33.0625 L 1.03125 -33.0625 L 1.03125 -40.71875 L 30.28125 -40.71875 L 30.28125 -33.0625 L 19.5625 -33.0625 Z M 19.5625 0 "/></g></g></g><g fill="#256519" fill-opacity="1"><g transform="translate(163.224113, 43.185079)"><g><path d="M 39.03125 -16.828125 L 50.609375 -40.71875 L 59.40625 -40.71875 L 38.703125 0.703125 L 29.78125 -16.0625 L 21.421875 0.703125 L -0.328125 -40.71875 L 9.40625 -40.71875 L 21.75 -16.828125 L 25.578125 -24.21875 L 16.9375 -40.71875 L 26.671875 -40.71875 Z M 39.03125 -16.828125 "/></g></g></g><g fill="#256519" fill-opacity="1"><g transform="translate(223.017175, 43.185079)"><g><path d="M 33.453125 0 L 30.765625 -5.46875 L 11.046875 -5.46875 L 8.421875 0 L -0.328125 0 L 21.15625 -41.421875 L 42.6875 0 Z M 20.828125 -25.796875 L 14.703125 -13.125 L 27.0625 -13.125 Z M 20.828125 -25.796875 "/></g></g></g><g fill="#256519" fill-opacity="1"><g transform="translate(266.085698, 43.185079)"><g><path d="M 3.875 -40.71875 L 12.359375 -40.71875 L 12.359375 -7.65625 L 28.75 -7.65625 L 28.75 0 L 3.875 0 Z M 3.875 -40.71875 "/></g></g></g><g fill="#256519" fill-opacity="1"><g transform="translate(296.364883, 43.185079)"><g><path d="M 29.125 0 L 3.875 0 L 3.875 -40.71875 L 25.53125 -40.71875 L 25.53125 -33.0625 L 12.359375 -33.0625 L 12.359375 -25.46875 L 27.65625 -25.46875 L 27.65625 -17.875 L 12.359375 -17.875 L 12.359375 -7.65625 L 29.125 -7.65625 Z M 29.125 0 "/></g></g></g></g></g><g transform="matrix(1, 0, 0, 1, 84, 229)"><g clip-path="url(#1eff2fe3aa)"><g fill="#67a71a" fill-opacity="1"><g transform="translate(1.19357, 20.959421)"><g><path d="M 10.3125 -11.71875 L 4.859375 -11.71875 L 4.859375 -8.46875 L 9.5625 -8.46875 L 9.5625 -5.875 L 4.859375 -5.875 L 4.859375 0 L 1.859375 0 L 1.859375 -14.34375 L 10.3125 -14.34375 Z M 10.3125 -11.71875 "/></g></g></g><g fill="#67a71a" fill-opacity="1"><g transform="translate(13.71208, 20.959421)"><g><path d="M 9.421875 0 L 6.09375 -5.296875 L 4.828125 -5.296875 L 4.828125 0 L 1.859375 0 L 1.859375 -14.34375 L 6.578125 -14.34375 C 7.179688 -14.34375 7.695312 -14.316406 8.125 -14.265625 C 8.5625 -14.210938 8.9375 -14.140625 9.25 -14.046875 C 9.570312 -13.960938 9.859375 -13.859375 10.109375 -13.734375 C 10.804688 -13.367188 11.304688 -12.851562 11.609375 -12.1875 C 11.921875 -11.53125 12.078125 -10.773438 12.078125 -9.921875 C 12.078125 -9.023438 11.921875 -8.234375 11.609375 -7.546875 C 11.296875 -6.859375 10.773438 -6.320312 10.046875 -5.9375 C 9.773438 -5.789062 9.46875 -5.664062 9.125 -5.5625 L 12.953125 0 Z M 4.828125 -11.84375 L 4.828125 -7.640625 L 6.15625 -7.640625 C 6.71875 -7.640625 7.164062 -7.660156 7.5 -7.703125 C 7.84375 -7.742188 8.125 -7.835938 8.34375 -7.984375 C 8.832031 -8.328125 9.078125 -8.910156 9.078125 -9.734375 C 9.078125 -10.140625 9.015625 -10.484375 8.890625 -10.765625 C 8.773438 -11.046875 8.613281 -11.269531 8.40625 -11.4375 C 8.175781 -11.601562 7.882812 -11.710938 7.53125 -11.765625 C 7.1875 -11.816406 6.726562 -11.84375 6.15625 -11.84375 Z M 4.828125 -11.84375 "/></g></g></g><g fill="#67a71a" fill-opacity="1"><g transform="translate(28.721056, 20.959421)"><g><path d="M 10.171875 -11.71875 L 4.859375 -11.71875 L 4.859375 -8.46875 L 9.5625 -8.46875 L 9.5625 -5.875 L 4.859375 -5.875 L 4.859375 -2.625 L 10.171875 -2.625 L 10.171875 0 L 1.859375 0 L 1.859375 -14.34375 L 10.171875 -14.34375 Z M 10.171875 -11.71875 "/></g></g></g><g fill="#67a71a" fill-opacity="1"><g transform="translate(41.626531, 20.959421)"><g><path d="M 6.625 0.203125 C 5.851562 0.203125 5.132812 0.113281 4.46875 -0.0625 C 3.800781 -0.25 3.203125 -0.519531 2.671875 -0.875 C 2.148438 -1.226562 1.71875 -1.660156 1.375 -2.171875 C 1.039062 -2.691406 0.816406 -3.289062 0.703125 -3.96875 L 3.65625 -4.640625 C 3.863281 -3.828125 4.234375 -3.222656 4.765625 -2.828125 C 5.296875 -2.429688 5.9375 -2.234375 6.6875 -2.234375 C 7.101562 -2.234375 7.476562 -2.289062 7.8125 -2.40625 C 8.15625 -2.53125 8.421875 -2.71875 8.609375 -2.96875 C 8.804688 -3.226562 8.90625 -3.550781 8.90625 -3.9375 C 8.90625 -4.28125 8.8125 -4.570312 8.625 -4.8125 C 8.4375 -5.0625 8.1875 -5.269531 7.875 -5.4375 C 7.570312 -5.613281 7.21875 -5.765625 6.8125 -5.890625 C 6.414062 -6.023438 6 -6.160156 5.5625 -6.296875 C 5.132812 -6.421875 4.710938 -6.554688 4.296875 -6.703125 C 3.878906 -6.859375 3.484375 -7.035156 3.109375 -7.234375 C 2.742188 -7.441406 2.414062 -7.6875 2.125 -7.96875 C 1.84375 -8.257812 1.617188 -8.601562 1.453125 -9 C 1.285156 -9.394531 1.203125 -9.859375 1.203125 -10.390625 C 1.203125 -11.054688 1.328125 -11.644531 1.578125 -12.15625 C 1.835938 -12.664062 2.191406 -13.097656 2.640625 -13.453125 C 3.097656 -13.804688 3.632812 -14.078125 4.25 -14.265625 C 4.875 -14.453125 5.546875 -14.546875 6.265625 -14.546875 C 6.890625 -14.546875 7.503906 -14.476562 8.109375 -14.34375 C 8.722656 -14.207031 9.289062 -13.988281 9.8125 -13.6875 C 10.332031 -13.382812 10.773438 -12.992188 11.140625 -12.515625 C 11.503906 -12.035156 11.757812 -11.453125 11.90625 -10.765625 L 9.203125 -10.109375 C 8.972656 -10.796875 8.625 -11.300781 8.15625 -11.625 C 7.6875 -11.945312 7.113281 -12.109375 6.4375 -12.109375 C 6.039062 -12.109375 5.671875 -12.050781 5.328125 -11.9375 C 4.992188 -11.820312 4.722656 -11.644531 4.515625 -11.40625 C 4.316406 -11.175781 4.21875 -10.875 4.21875 -10.5 C 4.21875 -10.207031 4.296875 -9.957031 4.453125 -9.75 C 4.617188 -9.539062 4.84375 -9.363281 5.125 -9.21875 C 5.40625 -9.070312 5.726562 -8.941406 6.09375 -8.828125 C 6.46875 -8.710938 6.851562 -8.597656 7.25 -8.484375 C 7.6875 -8.347656 8.128906 -8.203125 8.578125 -8.046875 C 9.023438 -7.890625 9.453125 -7.703125 9.859375 -7.484375 C 10.265625 -7.273438 10.625 -7.015625 10.9375 -6.703125 C 11.257812 -6.398438 11.515625 -6.035156 11.703125 -5.609375 C 11.890625 -5.179688 11.984375 -4.675781 11.984375 -4.09375 C 11.984375 -3.40625 11.851562 -2.796875 11.59375 -2.265625 C 11.332031 -1.734375 10.957031 -1.285156 10.46875 -0.921875 C 9.988281 -0.554688 9.421875 -0.273438 8.765625 -0.078125 C 8.117188 0.109375 7.40625 0.203125 6.625 0.203125 Z M 6.625 0.203125 "/></g></g></g><g fill="#67a71a" fill-opacity="1"><g transform="translate(56.020332, 20.959421)"><g><path d="M 1.859375 0 L 1.859375 -14.34375 L 4.828125 -14.34375 L 4.828125 -8.484375 L 10.90625 -8.484375 L 10.90625 -14.34375 L 13.875 -14.34375 L 13.875 0 L 10.90625 0 L 10.90625 -5.890625 L 4.828125 -5.890625 L 4.828125 0 Z M 1.859375 0 "/></g></g></g><g fill="#67a71a" fill-opacity="1"><g transform="translate(73.271719, 20.959421)"><g/></g></g><g fill="#67a71a" fill-opacity="1"><g transform="translate(80.075058, 20.959421)"><g><path d="M 14.734375 0 L 11.453125 0 L 10.515625 -1.1875 C 9.859375 -0.75 9.144531 -0.40625 8.375 -0.15625 C 7.613281 0.0820312 6.8125 0.203125 5.96875 0.203125 C 5.25 0.203125 4.578125 0.109375 3.953125 -0.078125 C 3.335938 -0.265625 2.800781 -0.535156 2.34375 -0.890625 C 1.894531 -1.242188 1.539062 -1.679688 1.28125 -2.203125 C 1.03125 -2.734375 0.90625 -3.335938 0.90625 -4.015625 C 0.90625 -4.535156 0.984375 -5 1.140625 -5.40625 C 1.304688 -5.8125 1.539062 -6.1875 1.84375 -6.53125 C 2.15625 -6.875 2.539062 -7.210938 3 -7.546875 C 3.46875 -7.878906 4.003906 -8.234375 4.609375 -8.609375 L 4.484375 -8.765625 C 4.003906 -9.367188 3.671875 -9.894531 3.484375 -10.34375 C 3.296875 -10.789062 3.203125 -11.21875 3.203125 -11.625 C 3.203125 -12.101562 3.300781 -12.519531 3.5 -12.875 C 3.695312 -13.238281 3.96875 -13.546875 4.3125 -13.796875 C 4.644531 -14.046875 5.046875 -14.234375 5.515625 -14.359375 C 5.984375 -14.484375 6.488281 -14.546875 7.03125 -14.546875 C 7.832031 -14.546875 8.523438 -14.421875 9.109375 -14.171875 C 9.691406 -13.921875 10.140625 -13.570312 10.453125 -13.125 C 10.773438 -12.675781 10.9375 -12.160156 10.9375 -11.578125 C 10.9375 -11.160156 10.84375 -10.765625 10.65625 -10.390625 C 10.46875 -10.015625 10.171875 -9.640625 9.765625 -9.265625 C 9.367188 -8.898438 8.835938 -8.519531 8.171875 -8.125 L 10.765625 -4.90625 C 11.140625 -5.46875 11.421875 -6.054688 11.609375 -6.671875 C 11.804688 -7.296875 11.90625 -7.890625 11.90625 -8.453125 L 14.484375 -8.453125 C 14.484375 -7.429688 14.296875 -6.441406 13.921875 -5.484375 C 13.554688 -4.523438 13.050781 -3.65625 12.40625 -2.875 Z M 6.21875 -12.390625 C 6 -12.203125 5.890625 -11.929688 5.890625 -11.578125 C 5.890625 -11.335938 5.945312 -11.101562 6.0625 -10.875 C 6.1875 -10.65625 6.378906 -10.375 6.640625 -10.03125 L 6.875 -9.75 C 7.394531 -10.0625 7.78125 -10.375 8.03125 -10.6875 C 8.28125 -11.007812 8.40625 -11.320312 8.40625 -11.625 C 8.40625 -11.957031 8.28125 -12.21875 8.03125 -12.40625 C 7.78125 -12.59375 7.472656 -12.6875 7.109375 -12.6875 C 6.734375 -12.6875 6.4375 -12.585938 6.21875 -12.390625 Z M 6.078125 -2.140625 C 6.640625 -2.140625 7.164062 -2.222656 7.65625 -2.390625 C 8.144531 -2.554688 8.597656 -2.78125 9.015625 -3.0625 L 6 -6.859375 C 5.507812 -6.566406 5.082031 -6.289062 4.71875 -6.03125 C 4.351562 -5.769531 4.066406 -5.484375 3.859375 -5.171875 C 3.648438 -4.867188 3.546875 -4.507812 3.546875 -4.09375 C 3.546875 -3.664062 3.648438 -3.304688 3.859375 -3.015625 C 4.078125 -2.722656 4.375 -2.503906 4.75 -2.359375 C 5.132812 -2.210938 5.578125 -2.140625 6.078125 -2.140625 Z M 6.078125 -2.140625 "/></g></g></g><g fill="#67a71a" fill-opacity="1"><g transform="translate(97.296679, 20.959421)"><g/></g></g><g fill="#67a71a" fill-opacity="1"><g transform="translate(104.100018, 20.959421)"><g><path d="M 11.65625 -14.34375 L 14.625 -14.34375 L 14.625 0 L 11.171875 0 L 4.828125 -10.25 L 4.828125 0 L 1.859375 0 L 1.859375 -14.34375 L 5.265625 -14.34375 L 11.65625 -4.15625 Z M 11.65625 -14.34375 "/></g></g></g><g fill="#67a71a" fill-opacity="1"><g transform="translate(122.095568, 20.959421)"><g><path d="M 11.453125 0 L 10.40625 -2.953125 L 4.390625 -2.953125 L 3.34375 0 L 0.296875 0 L 5.578125 -14.34375 L 9.21875 -14.34375 L 14.5 0 Z M 5.265625 -5.453125 L 9.53125 -5.453125 L 7.40625 -11.53125 Z M 5.265625 -5.453125 "/></g></g></g><g fill="#67a71a" fill-opacity="1"><g transform="translate(138.41427, 20.959421)"><g><path d="M 10.171875 -14.34375 L 10.171875 -11.71875 L 6.765625 -11.71875 L 6.765625 0 L 3.828125 0 L 3.828125 -11.71875 L 0.390625 -11.71875 L 0.390625 -14.34375 Z M 10.171875 -14.34375 "/></g></g></g><g fill="#67a71a" fill-opacity="1"><g transform="translate(150.506127, 20.959421)"><g><path d="M 7.171875 0.203125 C 6.378906 0.203125 5.644531 0.0976562 4.96875 -0.109375 C 4.289062 -0.316406 3.691406 -0.632812 3.171875 -1.0625 C 2.660156 -1.488281 2.265625 -2.03125 1.984375 -2.6875 C 1.703125 -3.34375 1.5625 -4.117188 1.5625 -5.015625 L 1.5625 -14.34375 L 4.53125 -14.34375 L 4.53125 -5.421875 C 4.53125 -4.703125 4.644531 -4.117188 4.875 -3.671875 C 5.113281 -3.234375 5.429688 -2.914062 5.828125 -2.71875 C 6.234375 -2.53125 6.679688 -2.4375 7.171875 -2.4375 C 7.660156 -2.4375 8.101562 -2.535156 8.5 -2.734375 C 8.90625 -2.929688 9.222656 -3.25 9.453125 -3.6875 C 9.691406 -4.125 9.8125 -4.703125 9.8125 -5.421875 L 9.8125 -14.34375 L 12.796875 -14.34375 L 12.796875 -5.015625 C 12.796875 -4.117188 12.648438 -3.34375 12.359375 -2.6875 C 12.078125 -2.03125 11.675781 -1.488281 11.15625 -1.0625 C 10.644531 -0.632812 10.046875 -0.316406 9.359375 -0.109375 C 8.679688 0.0976562 7.953125 0.203125 7.171875 0.203125 Z M 7.171875 0.203125 "/></g></g></g><g fill="#67a71a" fill-opacity="1"><g transform="translate(166.378331, 20.959421)"><g><path d="M 9.421875 0 L 6.09375 -5.296875 L 4.828125 -5.296875 L 4.828125 0 L 1.859375 0 L 1.859375 -14.34375 L 6.578125 -14.34375 C 7.179688 -14.34375 7.695312 -14.316406 8.125 -14.265625 C 8.5625 -14.210938 8.9375 -14.140625 9.25 -14.046875 C 9.570312 -13.960938 9.859375 -13.859375 10.109375 -13.734375 C 10.804688 -13.367188 11.304688 -12.851562 11.609375 -12.1875 C 11.921875 -11.53125 12.078125 -10.773438 12.078125 -9.921875 C 12.078125 -9.023438 11.921875 -8.234375 11.609375 -7.546875 C 11.296875 -6.859375 10.773438 -6.320312 10.046875 -5.9375 C 9.773438 -5.789062 9.46875 -5.664062 9.125 -5.5625 L 12.953125 0 Z M 4.828125 -11.84375 L 4.828125 -7.640625 L 6.15625 -7.640625 C 6.71875 -7.640625 7.164062 -7.660156 7.5 -7.703125 C 7.84375 -7.742188 8.125 -7.835938 8.34375 -7.984375 C 8.832031 -8.328125 9.078125 -8.910156 9.078125 -9.734375 C 9.078125 -10.140625 9.015625 -10.484375 8.890625 -10.765625 C 8.773438 -11.046875 8.613281 -11.269531 8.40625 -11.4375 C 8.175781 -11.601562 7.882812 -11.710938 7.53125 -11.765625 C 7.1875 -11.816406 6.726562 -11.84375 6.15625 -11.84375 Z M 4.828125 -11.84375 "/></g></g></g><g fill="#67a71a" fill-opacity="1"><g transform="translate(181.387307, 20.959421)"><g><path d="M 11.453125 0 L 10.40625 -2.953125 L 4.390625 -2.953125 L 3.34375 0 L 0.296875 0 L 5.578125 -14.34375 L 9.21875 -14.34375 L 14.5 0 Z M 5.265625 -5.453125 L 9.53125 -5.453125 L 7.40625 -11.53125 Z M 5.265625 -5.453125 "/></g></g></g><g fill="#67a71a" fill-opacity="1"><g transform="translate(197.706009, 20.959421)"><g><path d="M 4.828125 -2.625 L 9.328125 -2.625 L 9.328125 0 L 1.859375 0 L 1.859375 -14.34375 L 4.828125 -14.34375 Z M 4.828125 -2.625 "/></g></g></g></g></g></svg>